<svg width="24" height="25" viewBox="0 0 24 25" fill="none" xmlns="http://www.w3.org/2000/svg">
<path d="M21.3333 0H2.66667C1.196 0 0 1.22041 0 2.72109V21.7687C0 23.2694 1.196 24.4898 2.66667 24.4898H13.3333C13.5085 24.4901 13.6819 24.455 13.8437 24.3866C14.0055 24.3181 14.1524 24.2177 14.276 24.0912L23.6093 14.5673C23.719 14.4514 23.8075 14.3164 23.8707 14.1687C23.8893 14.1279 23.9 14.0857 23.9147 14.0422C23.9526 13.9283 23.9755 13.8098 23.9827 13.6898C23.9853 13.6612 24 13.634 24 13.6054V2.72109C24 1.22041 22.804 0 21.3333 0ZM2.66667 2.72109H21.3333V12.2449H13.3333C12.9797 12.2449 12.6406 12.3882 12.3905 12.6434C12.1405 12.8985 12 13.2446 12 13.6054V21.7687H2.66667V2.72109ZM14.6667 19.8449V14.966H19.448L14.6667 19.8449Z" fill="#05A88F"/>
</svg>
