<svg width="24" height="20" viewBox="0 0 24 20" fill="none" xmlns="http://www.w3.org/2000/svg">
<path fill-rule="evenodd" clip-rule="evenodd" d="M6.50759 0.813449L7.32104 0H10.5748L11.3883 0.813449V18.7093L10.5748 19.5228H7.32104L6.50759 18.7093V0.813449ZM8.13449 1.6269V17.8959H9.76139V1.6269H8.13449ZM13.2934 2.18818L13.7798 1.14534L16.8384 0.0325379L17.8796 0.518981L24 17.3346L23.5136 18.3774L20.4566 19.4902L19.4154 19.0038L13.2918 2.18818H13.2934ZM15.0992 2.39642L20.6632 17.6828L22.1925 17.128L16.6285 1.84002L15.0992 2.39642ZM0 0.813449L0.813449 0H4.06725L4.88069 0.813449V18.7093L4.06725 19.5228H0.813449L0 18.7093V0.813449ZM1.6269 1.6269V17.8959H3.2538V1.6269H1.6269Z" fill="#BDBDBD"/>
</svg>
