<svg width="12" height="12" viewBox="0 0 12 12" fill="none" xmlns="http://www.w3.org/2000/svg">
<path fill-rule="evenodd" clip-rule="evenodd" d="M0 6C0 2.68636 2.68636 0 6 0C9.31364 0 12 2.68636 12 6C12 9.31364 9.31364 12 6 12C2.68636 12 0 9.31364 0 6ZM1.09091 6C1.09091 5.35533 1.21789 4.71697 1.46459 4.12137C1.7113 3.52577 2.0729 2.9846 2.52875 2.52875C2.9846 2.0729 3.52577 1.7113 4.12137 1.46459C4.71697 1.21789 5.35533 1.09091 6 1.09091C6.64467 1.09091 7.28303 1.21789 7.87863 1.46459C8.47423 1.7113 9.0154 2.0729 9.47125 2.52875C9.9271 2.9846 10.2887 3.52577 10.5354 4.12137C10.7821 4.71697 10.9091 5.35533 10.9091 6C10.9091 7.30197 10.3919 8.55062 9.47125 9.47125C8.55062 10.3919 7.30197 10.9091 6 10.9091C4.69803 10.9091 3.44938 10.3919 2.52875 9.47125C1.60812 8.55062 1.09091 7.30197 1.09091 6Z" fill="#05A88F"/>
</svg>
